<?xml version="1.0"?>
<svg xmlns="http://www.w3.org/2000/svg" height="512px" viewBox="0 0 490.66667 490.66667" width="512px" class=""><g><path d="m318.828125 490.667969c-11.179687 0-21.355469-7.019531-25.324219-17.453125l-89.046875-233.726563c-1.085937-2.410156-1.8125-5.929687-1.8125-9.707031 0-14.953125 12.160157-27.136719 27.117188-27.136719 3.859375 0 7.445312.746094 10.6875 2.21875l232.746093 88.640625c10.453126 3.96875 17.472657 14.144532 17.472657 25.34375 0 11.777344-7.554688 22.144532-18.753907 25.792969l-95.871093 31.402344-31.425781 95.9375c-3.667969 11.175781-14.035157 18.6875-25.789063 18.6875zm-80.597656-252.417969 80.277343 210.667969 29.652344-90.519531c1.578125-4.839844 5.398438-8.636719 10.21875-10.21875l90.515625-29.652344zm223.636719 85.207031h.210937zm-233.75-89.066406c.0625.042969.171874.085937.277343.105469zm5.953124-7.082031.320313.808594c-.109375-.253907-.191406-.53125-.320313-.808594zm0 0" data-original="#000000" class="active-path" data-old_color="#SPECIF" fill="#76A2E3"/><path d="m213.332031 426.667969c-117.628906 0-213.332031-95.703125-213.332031-213.335938 0-117.628906 95.703125-213.332031 213.332031-213.332031 117.632813 0 213.335938 95.703125 213.335938 213.332031 0 3.117188-.023438 6.210938-.257813 9.34375-.683594 8.8125-8.488281 15.488281-17.195312 14.722657-8.808594-.683594-15.402344-8.363282-14.71875-17.175782.191406-2.300781.171875-4.605468.171875-6.890625 0-99.988281-81.34375-181.332031-181.335938-181.332031-99.988281 0-181.332031 81.34375-181.332031 181.332031 0 99.992188 81.34375 181.335938 181.332031 181.335938 2.371094-.023438 4.824219.019531 7.082031-.152344 8.726563-.679687 16.515626 5.910156 17.195313 14.722656.683594 8.808594-5.90625 16.488281-14.71875 17.171875-3.113281.234375-6.441406.257813-9.558594.257813zm0 0" data-original="#000000" class="active-path" data-old_color="#SPECIF" fill="#76A2E3"/></g> </svg>
